<?xml version="1.0" encoding="UTF-8"?>
<svg version="1.1" xmlns="http://www.w3.org/2000/svg" width="135" height="180">
<path d="M0 0 C27.06 0 54.12 0 82 0 C82 21.45 82 42.9 82 65 C54.94 65 27.88 65 0 65 C0 43.55 0 22.1 0 0 Z " fill="#FCFCF9" transform="translate(53,19)"/>
<path d="M0 0 C3.86643759 -0.74934995 7.13743943 -0.83373989 11 0 C15.49195525 3.11918773 19.01846932 6.9728503 22.6875 11 C23.69463604 12.06239483 24.70438479 13.12231928 25.71679688 14.1796875 C28.17534766 16.75863051 30.59672627 19.36934229 33 22 C36.65703803 20.48670722 38.74380806 18.34873166 41.37890625 15.4296875 C42.21873047 14.53378906 43.05855469 13.63789062 43.92382812 12.71484375 C45.67425432 10.83096537 47.4063802 8.92990575 49.11914062 7.01171875 C55.49867244 0.29795178 55.49867244 0.29795178 60.10498047 -0.61621094 C62.81299793 -0.61707875 65.33316778 -0.45399682 68 0 C68 1.32 68 2.64 68 4 C65.03 4 62.06 4 59 4 C57 7.76429774 57 7.76429774 56 11 C60.455 10.505 60.455 10.505 65 10 C65 23.53 65 37.06 65 51 C63.02 51 61.04 51 59 51 C58.505 38.13 58.505 38.13 58 25 C50.7557772 32.1662479 50.7557772 32.1662479 44.25 39.75 C41.3595445 43.41124363 38.34636002 46.74724445 35 50 C31.98492204 48.6736245 30.20153869 47.35485683 28.125 44.8125 C22.34823942 37.96926055 16.12334449 31.53156746 10 25 C9.67 33.25 9.34 41.5 9 50 C7.02 50 5.04 50 3 50 C3 36.47 3 22.94 3 9 C6.465 8.505 6.465 8.505 10 8 C10 6.35 10 4.7 10 3 C6.7 3 3.4 3 0 3 C0 2.01 0 1.02 0 0 Z " fill="#FBF5EA" transform="translate(63,23)"/>
<path d="M0 0 C1.98 0 3.96 0 6 0 C7.93739006 2.02800992 9.26870239 3.73430666 10.75 6.0625 C11.16975098 6.68576172 11.58950195 7.30902344 12.02197266 7.95117188 C12.91014866 9.27534955 13.7890102 10.60581511 14.65917969 11.94189453 C15.99612065 13.99404535 17.3571318 16.0280078 18.7265625 18.05859375 C20.79963136 21.13846348 22.85677881 24.22803453 24.89355469 27.33203125 C25.6431838 28.46209879 26.40468784 29.58436252 27.17675781 30.69921875 C30 34.79403534 30 34.79403534 30 37 C30.66 37 31.32 37 32 37 C32.38720215 35.92347168 32.38720215 35.92347168 32.78222656 34.82519531 C34.06865135 31.84073107 35.61068245 29.44957295 37.484375 26.796875 C38.17273438 25.81589844 38.86109375 24.83492187 39.5703125 23.82421875 C40.28960937 22.80972656 41.00890625 21.79523437 41.75 20.75 C43.16228933 18.74537686 44.57375927 16.74017618 45.984375 14.734375 C46.66951172 13.77208984 47.35464844 12.80980469 48.06054688 11.81835938 C49.31012543 10.00250655 50.5092878 8.15037957 51.64257812 6.25976562 C52.38411133 5.02516602 52.38411133 5.02516602 53.140625 3.765625 C53.55344727 3.03633789 53.96626953 2.30705078 54.39160156 1.55566406 C56 0 56 0 62 0 C62 13.53 62 27.06 62 41 C60.02 41 58.04 41 56 41 C55.505 28.13 55.505 28.13 55 15 C47.7557772 22.1662479 47.7557772 22.1662479 41.25 29.75 C38.3595445 33.41124363 35.34636002 36.74724445 32 40 C28.98492204 38.6736245 27.20153869 37.35485683 25.125 34.8125 C19.34823942 27.96926055 13.12334449 21.53156746 7 15 C6.67 23.25 6.34 31.5 6 40 C4.02 40 2.04 40 0 40 C0 26.8 0 13.6 0 0 Z " fill="#FE870E" transform="translate(66,33)"/>
<path d="M0 0 C3.86643759 -0.74934995 7.13743943 -0.83373989 11 0 C15.49195525 3.11918773 19.01846932 6.9728503 22.6875 11 C23.69463604 12.06239483 24.70438479 13.12231928 25.71679688 14.1796875 C28.17534766 16.75863051 30.59672627 19.36934229 33 22 C36.65703803 20.48670722 38.74380806 18.34873166 41.37890625 15.4296875 C42.21873047 14.53378906 43.05855469 13.63789062 43.92382812 12.71484375 C45.67425432 10.83096537 47.4063802 8.92990575 49.11914062 7.01171875 C55.49867244 0.29795178 55.49867244 0.29795178 60.10498047 -0.61621094 C62.81299793 -0.61707875 65.33316778 -0.45399682 68 0 C68 0.99 68 1.98 68 3 C64.7 3 61.4 3 58 3 C57.34 4.32 56.68 5.64 56 7 C54.17938365 9.22961596 52.33791575 11.40347219 50.4375 13.5625 C49.35705737 14.8051073 48.27764243 16.04860886 47.19921875 17.29296875 C46.66216309 17.91220215 46.12510742 18.53143555 45.57177734 19.16943359 C41.96124632 23.37442918 38.48348507 27.68962706 35 32 C31.48736349 30.82912116 30.8923234 29.89413625 28.6875 27 C27.98753906 26.11441406 27.28757812 25.22882812 26.56640625 24.31640625 C25.16284588 22.51878456 23.78290409 20.7082333 22.42138672 18.87841797 C20.6810825 16.54456794 18.90477751 14.24133787 17.125 11.9375 C16.57287842 11.17501953 16.02075684 10.41253906 15.4519043 9.62695312 C12.9745593 6.46520542 11.29295923 4.34556071 7.32714844 3.28564453 C4.85618758 3.03454478 2.4808643 2.92276614 0 3 C0 2.01 0 1.02 0 0 Z " fill="#FE8A15" transform="translate(63,23)"/>
<path d="M0 0 C2.08215203 1.98377081 3.76094066 3.96209594 5.33984375 6.36328125 C5.76330078 7.00330078 6.18675781 7.64332031 6.62304688 8.30273438 C7.05681641 8.96595703 7.49058594 9.62917969 7.9375 10.3125 C8.36740234 10.96412109 8.79730469 11.61574219 9.24023438 12.28710938 C10.08959208 13.57467894 10.93649 14.86387495 11.78076172 16.15478516 C12.57746905 17.36053486 13.38597417 18.55859343 14.20751953 19.74755859 C17 23.79671675 17 23.79671675 17 26 C17.66 26 18.32 26 19 26 C19.25523438 25.28457031 19.51046875 24.56914063 19.7734375 23.83203125 C21.0876888 20.79753382 22.69496016 18.36811089 24.625 15.6875 C25.25664063 14.80449219 25.88828125 13.92148437 26.5390625 13.01171875 C27.02117187 12.34785156 27.50328125 11.68398438 28 11 C28.99 11.33 29.98 11.66 31 12 C30.63174813 17.08942973 27.83539792 19.82127655 24.4375 23.3125 C23.91736328 23.86228516 23.39722656 24.41207031 22.86132812 24.97851562 C21.58291183 26.32730346 20.29260567 27.66480436 19 29 C15.95499915 27.66412866 14.16304828 26.3130032 12.0625 23.75 C8.51558711 19.54970842 4.81135514 15.51920283 1.0625 11.5 C0.47025635 10.86416992 -0.1219873 10.22833984 -0.73217773 9.57324219 C-2.15380689 8.04791578 -3.5767632 6.52382647 -5 5 C-4.34 4.67 -3.68 4.34 -3 4 C-2.34 4.33 -1.68 4.66 -1 5 C-0.67 3.35 -0.34 1.7 0 0 Z " fill="#FE8D1B" transform="translate(79,44)"/>
<path d="M0 0 C4.25209792 4.12324647 8.13635705 8.51282966 12 13 C11.690625 13.598125 11.38125 14.19625 11.0625 14.8125 C9.89790296 17.08956772 9.89790296 17.08956772 9 20 C6.05045501 17.39078713 4.14446699 14.64993491 2.125 11.3125 C-0.24091007 7.57118259 -0.24091007 7.57118259 -4.375 5.9375 C-5.674375 5.9684375 -5.674375 5.9684375 -7 6 C-7 5.67 -7 5.34 -7 5 C-3.535 4.505 -3.535 4.505 0 4 C0 2.68 0 1.36 0 0 Z " fill="#FCF3E4" transform="translate(73,27)"/>
<path d="M0 0 C0 0.99 0 1.98 0 3 C-3.3 3 -6.6 3 -10 3 C-10.66 4.32 -11.32 5.64 -12 7 C-13.00435972 8.28016835 -14.04690261 9.53128122 -15.125 10.75 C-15.93324219 11.67039062 -15.93324219 11.67039062 -16.7578125 12.609375 C-17.37269531 13.29773438 -17.37269531 13.29773438 -18 14 C-18.66 13.67 -19.32 13.34 -20 13 C-22.60931266 13.89363605 -22.60931266 13.89363605 -25 15 C-23.62452553 13.34943063 -22.24115859 11.70495699 -20.82421875 10.08984375 C-19.58646505 8.67186039 -18.38127736 7.22491173 -17.20703125 5.75390625 C-11.93907983 -0.33953859 -7.88324446 -1.04337059 0 0 Z " fill="#FF8E20" transform="translate(131,23)"/>
<path d="M0 0 C0.33 0 0.66 0 1 0 C1 13.2 1 26.4 1 40 C2.98 40 4.96 40 7 40 C7 31.42 7 22.84 7 14 C8.65 15.65 10.3 17.3 12 19 C10.68 19 9.36 19 8 19 C8 26.26 8 33.52 8 41 C5.36 41 2.72 41 0 41 C0 27.47 0 13.94 0 0 Z " fill="#FEDEB8" transform="translate(65,33)"/>
<path d="M0 0 C2.3828125 -0.29296875 2.3828125 -0.29296875 5.125 -0.1875 C6.03507812 -0.16042969 6.94515625 -0.13335938 7.8828125 -0.10546875 C8.58148438 -0.07066406 9.28015625 -0.03585938 10 0 C10 0.33 10 0.66 10 1 C7.03 1 4.06 1 1 1 C-1 4.76429774 -1 4.76429774 -2 8 C-1.34 8 -0.68 8 0 8 C-1.49836105 11.11198065 -3.19933758 14.0534615 -5 17 C-7 16 -9 15 -11 14 C-10.37351562 13.24074219 -9.74703125 12.48148438 -9.1015625 11.69921875 C-8.28429687 10.70535156 -7.46703125 9.71148437 -6.625 8.6875 C-5.81289062 7.70136719 -5.00078125 6.71523438 -4.1640625 5.69921875 C-1.94395043 3.01091621 -1.94395043 3.01091621 0 0 Z " fill="#FDEFDC" transform="translate(121,26)"/>
<path d="M0 0 C0.99 0 1.98 0 3 0 C4.61949011 2.57213134 5.04408751 3.67669159 4.625 6.75 C4.41875 7.4925 4.2125 8.235 4 9 C3.67 8.34 3.34 7.68 3 7 C1.68 7 0.36 7 -1 7 C-1.04254356 5.00045254 -1.04080783 2.99958364 -1 1 C-0.67 0.67 -0.34 0.34 0 0 Z " fill="#FAFDFB" transform="translate(90,51)"/>
<path d="M0 0 C1.65 1.65 3.3 3.3 5 5 C3.68 5 2.36 5 1 5 C1 12.26 1 19.52 1 27 C0.67 27 0.34 27 0 27 C0 18.09 0 9.18 0 0 Z " fill="#FEEFD7" transform="translate(72,47)"/>
<path d="M0 0 C-0.33 1.98 -0.66 3.96 -1 6 C-1.66 6 -2.32 6 -3 6 C-3 5.01 -3 4.02 -3 3 C-6.63 3 -10.26 3 -14 3 C-14 2.67 -14 2.34 -14 2 C-12.02 2 -10.04 2 -8 2 C-8 1.34 -8 0.68 -8 0 C-5.13822943 -1.43088528 -3.06624227 -0.59991697 0 0 Z " fill="#FDF5E8" transform="translate(134,20)"/>
<path d="M0 0 C0 2.31 0 4.62 0 7 C-0.66 7 -1.32 7 -2 7 C-2.33 6.34 -2.66 5.68 -3 5 C-3.33 6.98 -3.66 8.96 -4 11 C-4.66 11 -5.32 11 -6 11 C-6 10.34 -6 9.68 -6 9 C-6.99 8.67 -7.98 8.34 -9 8 C-7.6905332 6.66368764 -6.37734515 5.33102075 -5.0625 4 C-3.96615234 2.88625 -3.96615234 2.88625 -2.84765625 1.75 C-1 0 -1 0 0 0 Z " fill="#FDEFDB" transform="translate(122,47)"/>
<path d="M0 0 C1.9375 0.75 1.9375 0.75 4 2 C4.75 4.125 4.75 4.125 5 6 C2.92446352 6.5534764 1.15634036 7 -1 7 C-1.04254356 5.00045254 -1.04080783 2.99958364 -1 1 C-0.67 0.67 -0.34 0.34 0 0 Z " fill="#FDF9F3" transform="translate(83,41)"/>
<path d="M0 0 C0 0.33 0 0.66 0 1 C-2.97 1 -5.94 1 -9 1 C-11 4.76429774 -11 4.76429774 -12 8 C-11.34 8 -10.68 8 -10 8 C-10.33 8.99 -10.66 9.98 -11 11 C-11.66 10.67 -12.32 10.34 -13 10 C-13 9.01 -13 8.02 -13 7 C-13.66 6.67 -14.32 6.34 -15 6 C-10.88012059 -0.59180706 -7.51260325 -0.78772927 0 0 Z " fill="#FDECD3" transform="translate(131,26)"/>
<path d="M0 0 C2.97 0 5.94 0 9 0 C9 0.99 9 1.98 9 3 C5.7 3 2.4 3 -1 3 C-0.67 2.01 -0.34 1.02 0 0 Z " fill="#FF8B15" transform="translate(122,23)"/>
<path d="M0 0 C1.65 1.65 3.3 3.3 5 5 C4.01 5.495 4.01 5.495 3 6 C2.34 5.67 1.68 5.34 1 5 C0.67 5.99 0.34 6.98 0 8 C-2.31 7.34 -4.62 6.68 -7 6 C-7 5.67 -7 5.34 -7 5 C-3.535 4.505 -3.535 4.505 0 4 C0 2.68 0 1.36 0 0 Z " fill="#FDE8CB" transform="translate(73,27)"/>
<path d="M0 0 C2.4375 0.375 2.4375 0.375 5 1 C5.33 1.66 5.66 2.32 6 3 C5.67 3.66 5.34 4.32 5 5 C3.35 4.67 1.7 4.34 0 4 C0 2.68 0 1.36 0 0 Z " fill="#E61A1A" transform="translate(96,175)"/>
<path d="M0 0 C0.66 0.33 1.32 0.66 2 1 C1.34 2.65 0.68 4.3 0 6 C-0.99 6 -1.98 6 -3 6 C-5.15028304 6.94978897 -5.15028304 6.94978897 -7 8 C-6.02133662 6.85373678 -5.04205413 5.70800212 -4.0625 4.5625 C-3.51722656 3.92441406 -2.97195312 3.28632813 -2.41015625 2.62890625 C-1.63204305 1.73008851 -0.84063472 0.84063472 0 0 Z " fill="#FF9939" transform="translate(120,23)"/>
<path d="M0 0 C0.66 0 1.32 0 2 0 C3.125 4.75 3.125 4.75 2 7 C1.01 7 0.02 7 -1 7 C-0.67 4.69 -0.34 2.38 0 0 Z " fill="#F9FAF5" transform="translate(116,33)"/>
<path d="M0 0 C0.33 0.99 0.66 1.98 1 3 C-0.21484375 5.04296875 -0.21484375 5.04296875 -1.9375 7.1875 C-2.50339844 7.90292969 -3.06929688 8.61835937 -3.65234375 9.35546875 C-4.09707031 9.89816406 -4.54179688 10.44085938 -5 11 C-5 7.58678765 -4.33132534 6.60527115 -2.5 3.8125 C-2.0359375 3.09707031 -1.571875 2.38164063 -1.09375 1.64453125 C-0.7328125 1.10183594 -0.371875 0.55914062 0 0 Z " fill="#FE9228" transform="translate(121,34)"/>
<path d="M0 0 C2.475 0.495 2.475 0.495 5 1 C5.12375 1.639375 5.2475 2.27875 5.375 2.9375 C5.684375 3.9584375 5.684375 3.9584375 6 5 C6.66 5.33 7.32 5.66 8 6 C5 6 5 6 3.61328125 4.6875 C2.40885417 3.125 1.20442708 1.5625 0 0 Z " fill="#FDEBD4" transform="translate(76,25)"/>
<path d="M0 0 C0.66 0.99 1.32 1.98 2 3 C1.01 3.99 0.02 4.98 -1 6 C-1.99 5.67 -2.98 5.34 -4 5 C-4 4.34 -4 3.68 -4 3 C-3.01 3 -2.02 3 -1 3 C-0.67 2.01 -0.34 1.02 0 0 Z " fill="#FE922A" transform="translate(99,67)"/>
<path d="M0 0 C1.32 0.33 2.64 0.66 4 1 C4 2.98 4 4.96 4 7 C3.67 6.01 3.34 5.02 3 4 C2.01 4 1.02 4 0 4 C0 2.68 0 1.36 0 0 Z " fill="#F9FBF9" transform="translate(74,32)"/>
<path d="M0 0 C1.32 0 2.64 0 4 0 C4 1.32 4 2.64 4 4 C2.68 4 1.36 4 0 4 C0 2.68 0 1.36 0 0 Z " fill="#E51A1A" transform="translate(1,17)"/>
<path d="M0 0 C1.32 0 2.64 0 4 0 C4 1.32 4 2.64 4 4 C2.68 4 1.36 4 0 4 C0 2.68 0 1.36 0 0 Z " fill="#E51A1A" transform="translate(81,1)"/>
</svg>
